<?xml version="1.0" encoding="utf-8"?>
<!-- Generator: Adobe Illustrator 23.0.0, SVG Export Plug-In . SVG Version: 6.00 Build 0)  -->
<svg version="1.1" id="Layer_1" xmlns="http://www.w3.org/2000/svg" xmlns:xlink="http://www.w3.org/1999/xlink" x="0px" y="0px"
	 viewBox="0 0 50 50" style="enable-background:new 0 0 50 50;" xml:space="preserve">
<style type="text/css">
	.st0{fill-rule:evenodd;clip-rule:evenodd;fill:#FFFFFF;}
	.st1{fill-rule:evenodd;clip-rule:evenodd;fill:#F37422;}
	.st2{fill-rule:evenodd;clip-rule:evenodd;fill:#FCE0D2;}
	.st3{fill:none;}
	.st4{fill:#FFFFFF;}
	.st5{fill-rule:evenodd;clip-rule:evenodd;}
</style>
<g>
	<path class="st0" d="M45.71,25.04c0,6.21,0,12.42,0,18.63c0,0.77-0.55,1.33-1.32,1.33c-3.83,0-7.65,0-11.47,0
		c-0.68,0-1.22-0.53-1.28-1.22c-0.01-0.15-0.01-0.3-0.01-0.45c0-12.27,0-24.54-0.01-36.8c0-0.64,0.22-1.15,0.84-1.41
		c0.14-0.06,0.31-0.1,0.46-0.1C36.71,5,40.49,5.02,44.27,5c0.84,0,1.46,0.59,1.46,1.48C45.71,12.67,45.72,18.86,45.71,25.04
		C45.71,25.04,45.71,25.04,45.71,25.04z M39.45,19.95c-0.47-0.19-0.88-0.35-1.28-0.54c-0.08-0.03-0.13-0.19-0.14-0.29
		c-0.02-0.27-0.03-0.55-0.01-0.83c0.02-0.27-0.08-0.35-0.34-0.35c-0.79,0.01-1.58,0-2.36,0.01c-0.1,0-0.2,0.01-0.33,0.02
		c0.25,1.94,0.23,3.85,0.07,5.78c0.88,0,1.71,0,2.55,0c0.02-0.05,0.04-0.08,0.04-0.11c0.12-1,0.25-2,0.35-3.01
		c0.03-0.28,0.1-0.37,0.37-0.28c0.28,0.1,0.56,0.19,0.84,0.28c0.21,0.07,0.27,0.21,0.26,0.42c-0.06,0.79-0.11,1.59-0.18,2.39
		c-0.02,0.2-0.01,0.33,0.25,0.32c0.74-0.01,1.49,0.01,2.23-0.01c0.09,0,0.24-0.13,0.26-0.22c0.07-0.26,0.08-0.52,0.12-0.79
		c0.2-1.48,0.32-2.96,0.29-4.45c-0.01-0.27-0.09-0.35-0.35-0.34c-0.66,0.01-1.32,0-1.98,0c-0.82,0.01-0.64-0.06-0.65,0.66
		C39.45,19.04,39.45,19.48,39.45,19.95z M39.52,31.19c0.07,0.43,0.13,0.77,0.17,1.12c0.02,0.2,0.09,0.28,0.3,0.27
		c0.7-0.01,1.41-0.01,2.11,0c0.22,0,0.28-0.08,0.27-0.28c-0.03-0.48-0.04-0.96-0.08-1.43c-0.11-1.29-0.42-2.53-0.9-3.73
		c-0.11-0.28-0.27-0.38-0.57-0.38c-1.08,0.01-2.15,0.01-3.22,0.01c-0.04,0-0.09,0.02-0.15,0.03c0.08,0.1,0.14,0.17,0.2,0.25
		c0.44,0.63,0.45,0.7-0.08,1.26c-0.58,0.63-1.29,1.1-2.09,1.41c-0.11,0.04-0.24,0.15-0.27,0.26c-0.23,0.75-0.21,1.53-0.15,2.31
		c0.02,0.23,0.12,0.3,0.35,0.29c0.67-0.02,1.34-0.02,2.01,0c0.31,0.01,0.56-0.08,0.78-0.27c0.34-0.29,0.67-0.59,1.01-0.88
		C39.28,31.37,39.37,31.31,39.52,31.19z M38.27,14.99c-0.02-0.48-0.03-0.9-0.06-1.33c-0.03-0.3,0.08-0.41,0.38-0.44
		c1.12-0.13,2.19-0.41,3.24-0.82c0.16-0.07,0.32-0.13,0.29-0.35c-0.11-0.9-0.2-1.79-0.33-2.68c-0.01-0.08-0.16-0.19-0.25-0.19
		c-0.36-0.02-0.73-0.01-1.08-0.01c-1.57,0-3.13,0-4.69,0c-0.26,0-0.41,0.04-0.42,0.36c0,0.72-0.07,1.44-0.06,2.16
		c0.01,1.03,0.15,2.06,0.42,3.06c0.03,0.1,0.14,0.24,0.22,0.24C36.69,15,37.45,14.99,38.27,14.99z M36.99,38.11
		c-0.01,0,0.02,0,0.03,0.01c0.05,0.04,0.1,0.08,0.14,0.13c0.98,1.07,2.09,1.99,3.33,2.75c0.37,0.23,0.73,0.45,1.21,0.39
		c0.56-0.06,0.55,0.1,0.58-0.58c0-0.11,0.02-0.21,0.02-0.32c0.01-1.55,0.02-3.11,0.02-4.66c0-0.08-0.09-0.23-0.14-0.24
		c-0.39-0.02-0.77-0.01-1.17-0.01c0.26,1.03,0.39,2.05,0.34,3.13c-0.12-0.06-0.18-0.09-0.24-0.13c-1.05-0.77-1.93-1.7-2.64-2.78
		c-0.1-0.16-0.21-0.23-0.41-0.23c-0.93,0.01-1.85-0.01-2.78-0.01c-0.07,0-0.13,0.03-0.22,0.05c0.13,0.23,0.26,0.43,0.37,0.63
		c0.13,0.24,0.34,0.48,0.35,0.74c0.05,0.96,0.05,1.93,0.04,2.9c-0.01,0.49-0.08,0.98-0.13,1.52c0.36,0,0.67-0.01,0.99,0
		c0.19,0.01,0.28-0.06,0.28-0.25c0.01-0.31,0.04-0.62,0.04-0.92C36.99,39.52,36.99,38.82,36.99,38.11z"/>
	<path class="st1" d="M39.45,19.95c0-0.48,0-0.91,0-1.34c0.01-0.72-0.17-0.65,0.65-0.66c0.66,0,1.32,0.01,1.98,0
		c0.26,0,0.34,0.08,0.35,0.34c0.03,1.49-0.09,2.98-0.29,4.45c-0.04,0.26-0.05,0.53-0.12,0.79c-0.03,0.09-0.17,0.22-0.26,0.22
		c-0.74,0.02-1.49,0-2.23,0.01c-0.25,0-0.26-0.12-0.25-0.32c0.07-0.79,0.12-1.59,0.18-2.39c0.01-0.21-0.05-0.35-0.26-0.42
		c-0.28-0.09-0.56-0.19-0.84-0.28c-0.27-0.09-0.34,0-0.37,0.28c-0.1,1-0.23,2.01-0.35,3.01c0,0.03-0.02,0.06-0.04,0.11
		c-0.83,0-1.67,0-2.55,0c0.15-1.93,0.18-3.83-0.07-5.78c0.13-0.01,0.23-0.02,0.33-0.02c0.78,0,1.57,0,2.36-0.01
		c0.26-0.01,0.36,0.08,0.34,0.35c-0.02,0.27-0.01,0.55,0.01,0.83c0.01,0.1,0.06,0.26,0.14,0.29C38.57,19.6,38.98,19.76,39.45,19.95z
		"/>
	<path class="st1" d="M39.52,31.19c-0.16,0.12-0.24,0.18-0.32,0.24c-0.34,0.29-0.67,0.58-1.01,0.88c-0.22,0.2-0.47,0.28-0.78,0.27
		c-0.67-0.03-1.34-0.02-2.01,0c-0.23,0-0.33-0.07-0.35-0.29c-0.06-0.78-0.07-1.55,0.15-2.31c0.03-0.11,0.16-0.22,0.27-0.26
		c0.81-0.32,1.51-0.78,2.09-1.41c0.53-0.57,0.53-0.63,0.08-1.26c-0.05-0.08-0.12-0.15-0.2-0.25c0.06-0.01,0.1-0.03,0.15-0.03
		c1.08,0,2.15,0,3.22-0.01c0.29,0,0.45,0.09,0.57,0.38c0.48,1.2,0.79,2.44,0.9,3.73c0.04,0.47,0.05,0.96,0.08,1.43
		c0.01,0.2-0.05,0.28-0.27,0.28c-0.7-0.01-1.41-0.01-2.11,0c-0.2,0-0.28-0.07-0.3-0.27C39.66,31.96,39.59,31.62,39.52,31.19z
		 M37.76,31.52c0.63-0.28,1.09-0.65,1.49-1.09c0.05-0.05,0.03-0.19,0-0.27c-0.22-0.55-0.44-1.1-0.68-1.65
		c-0.02-0.05-0.07-0.08-0.13-0.15C38.02,29.38,37.87,30.4,37.76,31.52z"/>
	<path class="st1" d="M36.99,38.11c0,0.71,0,1.41,0,2.1c0,0.31-0.03,0.62-0.04,0.92c-0.01,0.19-0.09,0.25-0.28,0.25
		c-0.32-0.01-0.63,0-0.99,0c0.05-0.54,0.13-1.03,0.13-1.52c0.01-0.97,0.01-1.94-0.04-2.9c-0.01-0.25-0.22-0.49-0.35-0.74
		c-0.11-0.21-0.23-0.4-0.37-0.63c0.09-0.02,0.16-0.05,0.22-0.05c0.92,0.01,1.85,0.02,2.78,0.01c0.2,0,0.31,0.08,0.41,0.23
		c0.72,1.08,1.59,2.01,2.64,2.78c0.06,0.04,0.13,0.07,0.24,0.13c0.05-1.08-0.08-2.1-0.34-3.13c0.4,0,0.79-0.01,1.17,0.01
		c0.06,0,0.14,0.15,0.14,0.24c0,1.55-0.01,3.11-0.02,4.66c0,0.11-0.02,0.21-0.02,0.32c-0.03,0.68-0.03,0.52-0.58,0.58
		c-0.48,0.05-0.84-0.16-1.21-0.39c-1.24-0.76-2.35-1.68-3.33-2.75c-0.04-0.05-0.09-0.09-0.14-0.13
		C37.01,38.11,36.99,38.11,36.99,38.11z"/>
	<path class="st0" d="M37.76,31.52c0.11-1.13,0.26-2.15,0.68-3.15c0.06,0.06,0.11,0.1,0.13,0.15c0.23,0.55,0.46,1.1,0.68,1.65
		c0.03,0.08,0.05,0.22,0,0.27C38.84,30.87,38.39,31.24,37.76,31.52z"/>
	<path class="st0" d="M38.5,9.8c0.58,0.68,0.91,1.37,1.05,2.14c0.02,0.08-0.05,0.25-0.12,0.28c-0.37,0.14-0.75,0.25-1.18,0.38
		C38.23,11.62,38.35,10.74,38.5,9.8z"/>
	<path class="st2" d="M16.38,44.07c-1.12-0.04-2.22-0.16-3.25-0.61c-0.87-0.38-1.58-0.96-2.1-1.77c-0.73-1.13-0.15-2.67,1.15-3.03
		c0.37-0.1,0.77-0.11,1.16-0.14c0.1-0.01,0.23,0.05,0.31,0.11c0.83,0.73,1.82,0.96,2.88,0.94c0.99-0.02,1.9-0.29,2.69-0.96
		c0.16-0.14,0.5-0.09,0.75-0.08c1.08,0.05,1.89,0.7,2.09,1.69c0.13,0.64-0.07,1.22-0.45,1.72c-0.88,1.15-2.09,1.75-3.49,1.96
		C17.54,43.99,16.96,44.02,16.38,44.07z"/>
	<path class="st0" d="M27.45,19.55c0.29,1.49,0.8,2.91,0.81,4.43c0,0.46-0.02,0.93-0.11,1.38c-0.13,0.63-0.59,0.81-1.06,0.37
		c-0.46-0.43-0.87-0.95-1.2-1.49c-0.92-1.52-1.55-3.19-2.22-4.83c-0.49-1.19-1-2.38-1.81-3.4c-0.24-0.31-0.54-0.58-0.82-0.87
		c0.78,0.34,1.39,0.89,1.98,1.48c0.69,0.69,1.41,1.37,2.13,2.03c0.25,0.23,0.57,0.4,0.87,0.58C26.5,19.52,26.71,19.56,27.45,19.55z"
		/>
	<path class="st2" d="M11.23,38.88c0.4-1.42,1.17-2.04,2.68-2.2c0.17-0.02,0.34-0.03,0.5-0.06c0.32-0.04,0.61,0.02,0.9,0.19
		c0.72,0.41,1.48,0.41,2.19-0.02c0.74-0.45,1.55-0.52,2.37-0.58c0.06,0,0.16,0.12,0.2,0.2c0.35,0.61,0.76,1.15,1.31,1.6
		c1.13,0.91,2.42,0.91,3.46-0.06c-0.22,1.45-1.46,3.38-2.67,3.55c0.04-0.36,0.16-0.73,0.12-1.08c-0.12-1.14-0.89-1.95-2.05-2.07
		c-0.64-0.07-1.32-0.06-1.95,0.07c-1.35,0.3-2.67,0.25-4.01-0.04C13.24,38.15,12.2,38.2,11.23,38.88z"/>
	<path class="st2" d="M13.42,29.31c-0.52-0.32-1.04-0.65-1.58-0.96c-0.71-0.42-1.24-0.31-1.72,0.37c-0.19,0.27-0.34,0.57-0.56,0.94
		c0.56-0.11,1.02-0.2,1.47-0.3c0.79-0.16,1.56-0.05,2.32,0.16c0.08,0.02,0.19,0.17,0.18,0.25c-0.13,1.18-0.59,2.22-1.46,3.05
		c-1.16,1.1-3.29,0.7-3.97-0.75c-0.19-0.4-0.31-0.84-0.49-1.32c0.89,0.03,1.23-0.57,1.56-1.17c0.16-0.29,0.3-0.61,0.48-0.89
		c0.27-0.41,0.54-0.84,0.86-1.21c0.39-0.45,0.71-0.49,1.13-0.18C12.38,27.84,12.93,28.55,13.42,29.31z"/>
	<path class="st0" d="M11.77,15.16c-1.19,0.96-1.79,2.31-2.39,3.65c-0.75,1.66-1.47,3.34-2.22,5.01c-0.15,0.34-0.38,0.65-0.57,0.98
		c-0.39-0.24-0.55-0.58-0.67-0.94c-0.27-0.82-0.34-1.68-0.35-2.53c-0.01-0.57,0-1.14,0-1.7c1.8-0.32,2.86-1.62,4.01-2.79
		C10.23,16.18,10.89,15.52,11.77,15.16z"/>
	<path class="st3" d="M12.08,32.81c0.86-0.82,1.32-1.87,1.46-3.05c0.01-0.08-0.1-0.23-0.18-0.25c-0.76-0.21-1.53-0.32-2.32-0.16
		c-0.46,0.09-0.92,0.18-1.47,0.3c0.22-0.37,0.36-0.67,0.56-0.94c0.49-0.68,1.01-0.79,1.72-0.37c0.53,0.31,1.05,0.64,1.58,0.96
		c-0.49-0.76-1.04-1.46-1.76-2c-0.42-0.31-0.74-0.27-1.13,0.18c-0.33,0.37-0.59,0.79-0.86,1.21c-0.18,0.28-0.32,0.59-0.48,0.89
		c-0.33,0.6-0.67,1.2-1.56,1.17c0.18,0.48,0.3,0.92,0.49,1.32C8.79,33.51,10.92,33.92,12.08,32.81z"/>
	<path class="st3" d="M19.96,38.53c-0.26-0.01-0.6-0.06-0.75,0.08c-0.78,0.67-1.69,0.94-2.69,0.96c-1.06,0.02-2.06-0.21-2.88-0.94
		c-0.08-0.07-0.21-0.12-0.31-0.11c-0.39,0.03-0.79,0.04-1.16,0.14c-1.3,0.36-1.88,1.9-1.15,3.03c0.52,0.81,1.23,1.38,2.1,1.77
		c1.03,0.45,2.13,0.57,3.25,0.61c0.58-0.05,1.16-0.08,1.73-0.16c1.41-0.21,2.61-0.81,3.49-1.96c0.39-0.5,0.59-1.08,0.45-1.72
		C21.85,39.23,21.04,38.57,19.96,38.53z"/>
	<path class="st3" d="M21.4,38.01c-0.56-0.45-0.97-0.99-1.31-1.6c-0.05-0.08-0.14-0.2-0.2-0.2c-0.82,0.06-1.63,0.13-2.37,0.58
		c-0.71,0.43-1.47,0.43-2.19,0.02c-0.29-0.17-0.58-0.23-0.9-0.19c-0.17,0.02-0.34,0.04-0.5,0.06c-1.51,0.16-2.28,0.78-2.68,2.2
		c0.97-0.68,2.01-0.74,3.07-0.51c1.34,0.29,2.66,0.33,4.01,0.04c0.63-0.14,1.31-0.14,1.95-0.07c1.16,0.12,1.93,0.93,2.05,2.07
		c0.04,0.35-0.08,0.72-0.12,1.08c1.22-0.17,2.45-2.09,2.67-3.55C23.82,38.92,22.53,38.92,21.4,38.01z"/>
	<path class="st3" d="M20.37,26.19c1.5-0.51,2.89-0.4,4.08,0.75c0.35,0.34,0.72,0.65,1.07,0.98c0.03-0.02,0.06-0.04,0.09-0.06
		c-0.25-0.38-0.48-0.78-0.75-1.15c-0.47-0.64-0.93-1.29-1.62-1.72c-1.07-0.67-3.31-0.51-4.31,0.27c-0.42,0.33-0.61,1.03-0.41,1.52
		C19.16,26.59,19.77,26.39,20.37,26.19z"/>
	<path class="st3" d="M24.21,30.09c-0.12-0.17-0.23-0.36-0.34-0.53c-0.45-0.71-0.84-1.47-1.36-2.13c-0.55-0.71-1.15-0.73-1.78-0.08
		c-0.7,0.74-1.34,1.55-1.99,2.33c-0.06,0.08-0.09,0.24-0.06,0.34c0.14,0.42,0.29,0.84,0.48,1.23c0.47,0.93,1.12,1.68,2.12,2.07
		c1.07,0.41,2.05,0.3,2.94-0.44c0.25-0.21,0.42-0.52,0.63-0.78c-0.03-0.02-0.07-0.05-0.1-0.07c-0.04,0.05-0.09,0.1-0.12,0.16
		c-0.75,1.36-2.75,1.66-3.89,0.6c-0.88-0.82-1.31-1.87-1.61-3c-0.02-0.06,0.1-0.2,0.17-0.22c0.73-0.2,1.46-0.34,2.22-0.21
		c0.52,0.09,1.04,0.19,1.57,0.29c0.03-0.02,0.05-0.05,0.08-0.07c-0.25-0.37-0.47-0.77-0.76-1.1c-0.35-0.4-0.78-0.46-1.27-0.23
		c-0.16,0.07-0.31,0.17-0.47,0.27c-0.46,0.28-0.91,0.57-1.37,0.85c0.26-0.41,0.55-0.79,0.86-1.14c0.25-0.28,0.52-0.55,0.81-0.8
		c0.48-0.42,0.84-0.43,1.26,0.05c0.38,0.44,0.7,0.95,1.02,1.44c0.25,0.39,0.44,0.82,0.69,1.21c0.35,0.54,0.77,0.69,1.32,0.55
		c0.01-0.03,0.03-0.06,0.04-0.09c-0.07-0.02-0.15-0.07-0.22-0.07C24.72,30.52,24.43,30.39,24.21,30.09z"/>
	<path class="st3" d="M25.4,23.37c0,0-0.02-0.03-0.42-0.84C25.12,22.82,25.25,23.1,25.4,23.37z"/>
	<path d="M10.13,15.89c-1.41,0.56-2.76,1.31-4.34,1.25c-0.2,0.7-0.02,1.6,0.44,2.09C7.85,18.51,8.92,17.12,10.13,15.89z"/>
	<path class="st4" d="M26.02,19.24c-0.3-0.18-0.61-0.35-0.87-0.58c-0.73-0.66-1.44-1.34-2.13-2.03c-0.59-0.59-1.2-1.15-1.98-1.48
		c0.28,0.29,0.57,0.56,0.82,0.87c0.81,1.02,1.32,2.2,1.81,3.4c0.43,1.04,0.84,2.1,1.31,3.12c0.4,0.81,0.41,0.84,0.42,0.84l0,0l0,0
		l0,0c0.15,0.29,0.32,0.58,0.49,0.87c0.33,0.54,0.74,1.06,1.2,1.49c0.47,0.44,0.93,0.26,1.06-0.37c0.09-0.45,0.11-0.92,0.11-1.38
		c-0.01-1.52-0.52-2.94-0.81-4.43C26.71,19.56,26.5,19.52,26.02,19.24z"/>
	<path class="st4" d="M9.58,16.84C8.43,18,7.37,19.31,5.57,19.63c0,0.56-0.01,1.13,0,1.7c0.01,0.86,0.08,1.71,0.35,2.53
		c0.12,0.36,0.28,0.7,0.67,0.94c0.2-0.33,0.42-0.64,0.57-0.98c0.75-1.66,1.47-3.34,2.22-5.01c0.6-1.34,1.2-2.69,2.39-3.65
		C10.89,15.52,10.23,16.18,9.58,16.84z"/>
	<polygon points="26.01,11.91 26.01,11.91 26.01,11.91 	"/>
	<path d="M11.49,15.74c0.24-0.23,0.5-0.44,0.8-0.61c0.75-0.46,1.59-0.55,2.44-0.53c0.16,0,0.32,0.02,0.48,0.01
		c0.07,0,0.14-0.05,0.2-0.08c-0.06-0.04-0.11-0.12-0.17-0.13l-0.02,0c-0.06,0.24-1.8,0.1-1.8,0.1c-0.01,0-0.02,0-0.03,0
		c-0.1,0.01-0.21,0.02-0.31,0.04c-0.07,0.01-0.13,0.02-0.2,0.03C12.45,14.73,11.97,15.17,11.49,15.74z"/>
	<path d="M12.16,7.76c-0.68,0.25-1.79,0.65-2.91,1.61c0.56-0.45,1.19-0.83,1.87-1.16C11.47,8.05,11.81,7.9,12.16,7.76z"/>
	<path d="M15.22,14.39c-0.61,0.03-1.22,0.03-1.83,0.09c0.01,0,0.02,0,0.03,0C13.42,14.48,15.16,14.62,15.22,14.39z"/>
	<path d="M12.52,7.62c-0.01,0-0.02,0.01-0.02,0.01c0.02-0.01,0.05-0.02,0.07-0.03C12.56,7.61,12.54,7.62,12.52,7.62z"/>
	<path d="M15.22,14.39l0.02,0C15.24,14.39,15.23,14.39,15.22,14.39z"/>
	<path d="M17.43,14.42l0.49-0.07c-0.09,0-0.19,0.01-0.28,0.02C17.51,14.38,17.45,14.39,17.43,14.42z"/>
	<path d="M28.49,23.47c-0.04-0.56-0.12-1.11-0.23-1.66c-0.15-0.74-0.35-1.47-0.51-2.21c-0.02-0.1,0.02-0.27,0.09-0.34
		c0.31-0.3,0.33-0.65,0.21-1.02c-0.15-0.43-0.33-0.85-0.48-1.28c-0.02-0.06,0.01-0.17,0.05-0.23c0.47-0.71,0.37-2.02-0.58-2.49
		c-0.07-0.03-0.14-0.1-0.17-0.16c-0.13-0.36-0.25-0.73-0.38-1.09c-0.13-0.37-0.29-0.73-0.47-1.07c0,0,0,0,0,0
		c-0.38-0.72-0.87-1.37-1.43-1.95c-1.07-1.1-2.36-1.92-3.8-2.44c-1.36-0.48-2.74-0.88-4.21-0.83c-0.97,0.02-1.94,0.04-2.87,0.35
		c-0.88,0.29-1.8,0.5-2.64,0.9c-0.76,0.36-1.47,0.88-2.14,1.42c-1.5,1.21-2.44,2.8-2.96,4.65c-0.03,0.11-0.12,0.24-0.22,0.28
		c-0.84,0.37-1,1.6-0.64,2.24c0.14,0.26,0.17,0.46,0,0.73c-0.14,0.21-0.21,0.48-0.28,0.73C4.67,18.45,4.63,18.91,5,19.31
		c0.06,0.06,0.06,0.2,0.04,0.3c-0.12,0.58-0.23,1.16-0.38,1.73c-0.33,1.25-0.46,2.51-0.34,3.79c0.04,0.38,0.17,0.71,0.47,0.96
		c0.09,0.07,0.15,0.21,0.15,0.33c0.04,0.47,0.02,0.95,0.07,1.42c0.1,0.9,0.21,1.8,0.34,2.69c0.08,0.53,0.31,1,0.63,1.43
		c0.12,0.16,0.3,0.31,0.35,0.5c0.1,0.42,0.12,0.86,0.21,1.28c0.18,0.82,0.38,1.64,0.6,2.45c0.12,0.43,0.34,0.84,0.44,1.28
		c0.2,0.9,0.49,1.76,0.97,2.54c0.42,0.69,0.95,1.25,1.7,1.59c0.33,0.15,0.61,0.34,0.86,0.64c0.35,0.43,0.8,0.81,1.26,1.12
		c0.87,0.59,1.89,0.82,2.92,0.9c1.61,0.13,3.23,0.09,4.71-0.69c0.48-0.25,0.91-0.61,1.34-0.95c0.4-0.32,0.61-0.88,1.22-0.91
		c0.03,0,0.05-0.03,0.08-0.05c0.99-0.56,1.69-1.37,2.07-2.43c0.23-0.62,0.38-1.26,0.57-1.89c0.06-0.19,0.11-0.39,0.17-0.58
		c0.11-0.31,0.27-0.61,0.34-0.93c0.23-1.07,0.43-2.14,0.63-3.22c0.04-0.19,0.11-0.33,0.26-0.47c0.21-0.2,0.44-0.43,0.52-0.69
		c0.22-0.76,0.42-1.54,0.52-2.33c0.12-0.88,0.12-1.77,0.19-2.65c0.01-0.14,0.06-0.3,0.15-0.4c0.28-0.31,0.42-0.68,0.43-1.09
		C28.51,24.49,28.53,23.97,28.49,23.47z M27.81,18.68c-0.02,0.4-0.33,0.68-0.76,0.62c-0.31-0.04-0.64-0.12-0.89-0.29
		c-0.58-0.38-1.14-0.8-1.66-1.26c-0.66-0.58-1.26-1.21-1.89-1.82c0.02-0.02,0.05-0.04,0.07-0.06c1.48,0.57,2.88,1.45,4.63,1.21
		C27.58,17.54,27.84,18.07,27.81,18.68z M5.79,17.15c1.58,0.05,2.93-0.69,4.34-1.25c-1.21,1.22-2.27,2.61-3.9,3.34
		C5.77,18.75,5.59,17.84,5.79,17.15z M6.59,24.8c-0.39-0.24-0.55-0.58-0.67-0.94c-0.27-0.82-0.34-1.68-0.35-2.53
		c-0.01-0.57,0-1.14,0-1.7c1.8-0.32,2.86-1.62,4.01-2.79c0.66-0.66,1.31-1.32,2.19-1.68c-1.19,0.96-1.79,2.31-2.39,3.65
		c-0.75,1.66-1.47,3.34-2.22,5.01C7.01,24.15,6.79,24.46,6.59,24.8z M8.11,32.07c-0.19-0.4-0.31-0.84-0.49-1.32
		c0.89,0.03,1.23-0.57,1.56-1.17c0.16-0.29,0.3-0.61,0.48-0.89c0.27-0.41,0.54-0.84,0.86-1.21c0.39-0.45,0.71-0.49,1.13-0.18
		c0.72,0.54,1.27,1.24,1.76,2c-0.52-0.32-1.04-0.65-1.58-0.96c-0.71-0.42-1.24-0.31-1.72,0.37c-0.19,0.27-0.34,0.57-0.56,0.94
		c0.56-0.11,1.02-0.2,1.47-0.3c0.79-0.16,1.56-0.05,2.32,0.16c0.08,0.02,0.19,0.17,0.18,0.25c-0.13,1.18-0.59,2.22-1.46,3.05
		C10.92,33.92,8.79,33.51,8.11,32.07z M21.61,41.94c-0.88,1.15-2.09,1.75-3.49,1.96c-0.57,0.09-1.15,0.11-1.73,0.16
		c-1.12-0.04-2.22-0.16-3.25-0.61c-0.87-0.38-1.58-0.96-2.1-1.77c-0.73-1.13-0.15-2.67,1.15-3.03c0.37-0.1,0.77-0.11,1.16-0.14
		c0.1-0.01,0.23,0.05,0.31,0.11c0.83,0.73,1.82,0.96,2.88,0.94c0.99-0.02,1.9-0.29,2.69-0.96c0.16-0.14,0.5-0.09,0.75-0.08
		c1.08,0.05,1.89,0.7,2.09,1.69C22.19,40.86,21.99,41.44,21.61,41.94z M22.19,41.49c0.04-0.36,0.16-0.73,0.12-1.08
		c-0.12-1.14-0.89-1.95-2.05-2.07c-0.64-0.07-1.32-0.06-1.95,0.07c-1.35,0.3-2.67,0.25-4.01-0.04c-1.06-0.23-2.1-0.18-3.07,0.51
		c0.4-1.42,1.17-2.04,2.68-2.2c0.17-0.02,0.34-0.03,0.5-0.06c0.32-0.04,0.61,0.02,0.9,0.19c0.72,0.41,1.48,0.41,2.19-0.02
		c0.74-0.45,1.55-0.52,2.37-0.58c0.06,0,0.16,0.12,0.2,0.2c0.35,0.61,0.76,1.15,1.31,1.6c1.13,0.91,2.42,0.91,3.46-0.06
		C24.64,39.4,23.41,41.33,22.19,41.49z M27.22,30.6c-0.12,0.48-0.27,0.94-0.7,1.37c0.03-0.26,0.06-0.43,0.06-0.61
		c0-0.07-0.06-0.15-0.09-0.23c-0.05,0.06-0.13,0.12-0.14,0.19c-0.18,1.09-0.31,2.2-0.53,3.28c-0.21,1.04-0.51,2.06-1.06,3
		c-0.48,0.83-1.33,0.97-2.21,0.75c-0.83-0.2-1.36-0.75-1.6-1.56c-0.17-0.59-0.31-1.18-0.46-1.78c-0.15-0.58-0.52-0.94-1.07-1.14
		c-0.03,0.02-0.05,0.04-0.08,0.06c0.06,0.07,0.1,0.18,0.17,0.21c0.42,0.2,0.66,0.54,0.78,0.98c0.11,0.42-0.05,0.74-0.48,0.83
		c-0.33,0.07-0.68,0.04-1,0.13c-0.47,0.13-0.96,0.27-1.39,0.49c-0.72,0.37-1.4,0.36-2.08-0.02c-0.59-0.33-1.22-0.52-1.9-0.54
		c-0.15-0.01-0.3-0.02-0.44-0.05c-0.46-0.11-0.61-0.39-0.5-0.84c0.11-0.46,0.38-0.79,0.8-1c0.06-0.03,0.09-0.11,0.13-0.17
		c-0.08-0.01-0.17-0.04-0.23-0.01c-0.45,0.21-0.76,0.55-0.89,1.05c-0.15,0.58-0.28,1.17-0.45,1.75c-0.18,0.62-0.53,1.13-1.12,1.42
		c-0.09,0.05-0.3,0.04-0.35-0.03c-0.62-0.82-1.05-1.73-0.83-2.76c0.19-0.92,0.8-1.6,1.69-1.95c0.84-0.34,1.49-0.88,1.96-1.64
		c0.34-0.55,0.6-1.16,0.89-1.74c0.04-0.09,0.06-0.25,0-0.32c-0.68-0.82-1.33-1.67-2.08-2.43c-0.62-0.63-1.2-0.58-1.75,0.13
		c-0.46,0.6-0.82,1.27-1.23,1.91C8.9,29.57,8.8,29.8,8.65,30c-0.13,0.16-0.28,0.33-0.46,0.42c-0.42,0.23-0.64,0.12-0.68-0.35
		c-0.05-0.72-0.06-1.45-0.08-2.18c0-0.09,0.04-0.22,0.11-0.28c0.5-0.42,0.99-0.86,1.52-1.24c0.77-0.54,1.64-0.59,2.52-0.37
		c0.88,0.22,1.74,0.5,2.63,0.76c0.2-0.67-0.09-1.41-0.75-1.7c-0.96-0.42-1.97-0.62-3.03-0.45c-0.64,0.1-1.17,0.44-1.6,0.9
		c-0.43,0.47-0.8,1-1.2,1.51c-0.02,0.03-0.05,0.06-0.1,0.12c-0.11-1.11-0.3-2.19,0-3.24c0.17-0.6,0.47-1.17,0.72-1.75
		c0.7-1.61,1.38-3.24,2.13-4.83c0.02-0.03,0.03-0.06,0.05-0.1c0.27-0.55,0.62-1.06,1.07-1.48c0.48-0.58,0.96-1.01,1.39-1.19
		c-0.98,0.18-1.87,0.62-2.78,1.03c-1,0.44-2.04,0.81-3.06,1.2c-0.1,0.04-0.2,0.06-0.31,0.07c-0.68,0.08-0.69,0.2-0.85-0.59
		c-0.05-0.27-0.03-0.56-0.05-0.78c0.53,0,1.02,0.01,1.51-0.01c0.09,0,0.18-0.11,0.27-0.17c-0.1-0.02-0.19-0.07-0.29-0.06
		c-0.25,0.01-0.49,0.05-0.78,0.08c0.11-1.01,0.34-1.94,0.61-2.86c0.14-0.47,0.32-0.89,0.54-1.28c0.4-0.71,0.94-1.3,1.56-1.8
		c1.11-0.96,2.22-1.36,2.91-1.61c0.11-0.04,0.23-0.09,0.34-0.13c0.01,0,0.02-0.01,0.02-0.01c0.02-0.01,0.03-0.01,0.05-0.02
		c0.01,0,0.01,0,0.02-0.01c1.48-0.52,3.02-0.75,4.62-0.6c2.75,0.26,5.24,1.16,7.2,3.2c1.28,1.32,2.02,2.92,2.39,4.72
		c0.04,0.19,0,0.3-0.18,0.32c-0.33,0.02-0.67,0.02-1,0.03c-0.09,0-0.19-0.04-0.28-0.04c-0.05,0-0.1,0.07-0.15,0.1
		c0.03,0.04,0.06,0.12,0.1,0.13c0.49,0.09,0.98,0.18,1.47,0c0.29-0.1,0.42-0.26,0.3-0.57c-0.04-0.09-0.04-0.2-0.07-0.31
		c0.62,0.31,0.82,1.35,0.46,1.92c-0.06,0.1-0.14,0.19-0.24,0.26c-0.15,0.1-0.37,0.16-0.54,0.14c-0.53-0.07-1.08-0.13-1.57-0.32
		c-1.08-0.41-2.14-0.9-3.21-1.37c-1.27-0.56-2.58-0.9-3.97-0.85c0,0,0,0,0,0l-0.49,0.07c-0.02,0.03-0.01,0.07-0.01,0.14
		c0.65,0.04,1.3,0.03,1.92,0.13c1.29,0.22,2.14,1.08,2.8,2.15c0.75,1.21,1.22,2.55,1.79,3.84c0.57,1.29,1.18,2.56,1.83,3.82
		c0.23,0.45,0.58,0.85,0.94,1.23c0.19,0.2,0.49,0.32,0.75,0.44c0.14,0.06,0.22,0.11,0.22,0.28C27.65,27.85,27.55,29.24,27.22,30.6z
		 M28.16,25.37c-0.13,0.63-0.59,0.81-1.06,0.37c-0.46-0.43-0.87-0.95-1.2-1.49c-0.17-0.29-0.34-0.58-0.49-0.87
		c-0.15-0.28-0.28-0.56-0.42-0.84c-0.48-1.02-0.89-2.08-1.31-3.12c-0.49-1.19-1-2.38-1.81-3.4c-0.24-0.31-0.54-0.58-0.82-0.87
		c0.78,0.34,1.39,0.89,1.98,1.48c0.69,0.69,1.41,1.37,2.13,2.03c0.25,0.23,0.57,0.4,0.87,0.58c0.48,0.28,0.69,0.32,1.43,0.31
		c0.29,1.49,0.8,2.91,0.81,4.43C28.27,24.44,28.25,24.92,28.16,25.37z"/>
	<path class="st4" d="M12.16,7.76c0.13-0.05,0.25-0.09,0.34-0.13C12.39,7.67,12.27,7.72,12.16,7.76z"/>
	<path class="st4" d="M12.57,7.61c0.01,0,0.01,0,0.02-0.01C12.59,7.6,12.58,7.6,12.57,7.61z"/>
	<path class="st4" d="M13.39,14.48c-0.16-0.03-0.33,0-0.51,0.07c0.07-0.01,0.13-0.02,0.2-0.03C13.18,14.5,13.29,14.49,13.39,14.48z"
		/>
	<path class="st4" d="M27.45,16.49c-0.09,0.11-0.19,0.2-0.24,0.26C27.31,16.68,27.39,16.59,27.45,16.49z"/>
	<path class="st4" d="M9.25,9.37c-0.63,0.5-1.16,1.09-1.56,1.8C8.18,10.42,8.72,9.83,9.25,9.37z"/>
	<path class="st4" d="M21.9,15.21c1.06,0.47,2.12,0.95,3.21,1.37c0.49,0.19,1.04,0.24,1.57,0.32c0.17,0.02,0.39-0.04,0.54-0.14
		c0.05-0.06,0.15-0.15,0.24-0.26c0.35-0.58,0.16-1.61-0.46-1.92c0.02,0.11,0.03,0.22,0.07,0.31c0.12,0.31-0.01,0.47-0.3,0.57
		c-0.49,0.18-0.98,0.09-1.47,0c-0.04-0.01-0.07-0.08-0.1-0.13c0.05-0.04,0.1-0.1,0.15-0.1c0.09-0.01,0.19,0.04,0.28,0.04
		c0.33,0,0.67,0,1-0.03c0.18-0.01,0.22-0.13,0.18-0.32c-0.37-1.79-1.11-3.39-2.39-4.72c-1.97-2.04-4.45-2.94-7.2-3.2
		c-1.6-0.15-3.14,0.09-4.62,0.6c-0.01,0-0.01,0-0.02,0.01c-0.02,0.01-0.05,0.02-0.07,0.03c-0.1,0.04-0.21,0.08-0.34,0.13
		c-0.35,0.14-0.69,0.29-1.03,0.45c-0.68,0.33-1.31,0.71-1.87,1.16c-0.53,0.46-1.07,1.05-1.56,1.8c-0.22,0.39-0.4,0.81-0.54,1.28
		c-0.27,0.92-0.5,1.85-0.61,2.86c0.28-0.03,0.53-0.06,0.78-0.08c0.1,0,0.19,0.04,0.29,0.06c-0.09,0.06-0.18,0.17-0.27,0.17
		c-0.49,0.02-0.98,0.01-1.51,0.01c0.01,0.22-0.01,0.5,0.05,0.78c0.16,0.79,0.17,0.67,0.85,0.59c0.1-0.01,0.21-0.03,0.31-0.07
		c1.02-0.39,2.06-0.76,3.06-1.2c0.91-0.4,1.8-0.84,2.78-1.03c0.18-0.08,0.36-0.1,0.51-0.07c0.61-0.06,1.22-0.07,1.83-0.09
		c0.01,0,0.02,0,0.02,0l1.15,0.18l1.04-0.14c0.02-0.03,0.08-0.04,0.22-0.05c0.09-0.01,0.19-0.01,0.28-0.02l0,0h0
		C19.31,14.3,20.63,14.65,21.9,15.21z"/>
	<path class="st4" d="M10.43,17.22c0.34-0.54,0.7-1.05,1.07-1.48C11.05,16.17,10.7,16.67,10.43,17.22z"/>
	<path class="st4" d="M22.67,15.88c-0.02,0.02-0.05,0.04-0.07,0.06c0.63,0.61,1.24,1.25,1.89,1.82c0.52,0.46,1.08,0.87,1.66,1.26
		c0.25,0.17,0.59,0.25,0.89,0.29c0.43,0.05,0.74-0.22,0.76-0.62c0.03-0.61-0.23-1.14-0.5-1.6C25.55,17.33,24.15,16.44,22.67,15.88z"
		/>
	<path class="st0" d="M10.13,15.89c-1.21,1.22-2.27,2.61-3.9,3.34c-0.46-0.49-0.64-1.39-0.44-2.09C7.36,17.2,8.71,16.46,10.13,15.89
		z"/>
	<path class="st5" d="M25.53,27.92c-0.36-0.33-0.73-0.64-1.07-0.98c-1.2-1.16-2.58-1.26-4.08-0.75c-0.61,0.21-1.22,0.4-1.82,0.59
		c-0.2-0.49-0.01-1.19,0.41-1.52c0.99-0.78,3.24-0.93,4.31-0.27c0.69,0.43,1.15,1.08,1.62,1.72c0.27,0.37,0.5,0.76,0.75,1.15
		C25.59,27.88,25.56,27.9,25.53,27.92z"/>
	<path class="st5" d="M25.27,30.67c-0.55,0.14-0.97-0.01-1.32-0.55c-0.25-0.39-0.44-0.82-0.69-1.21c-0.32-0.49-0.64-1-1.02-1.44
		c-0.41-0.48-0.77-0.47-1.26-0.05c-0.29,0.25-0.56,0.52-0.81,0.8c-0.31,0.35-0.6,0.73-0.86,1.14c0.46-0.29,0.91-0.57,1.37-0.85
		c0.15-0.09,0.3-0.19,0.47-0.27c0.49-0.22,0.92-0.17,1.27,0.23c0.29,0.34,0.51,0.73,0.76,1.1c-0.03,0.02-0.05,0.05-0.08,0.07
		c-0.52-0.1-1.04-0.2-1.57-0.29c-0.76-0.13-1.49,0-2.22,0.21c-0.08,0.02-0.19,0.16-0.17,0.22c0.3,1.12,0.73,2.18,1.61,3
		c1.15,1.06,3.14,0.76,3.89-0.6c0.03-0.06,0.08-0.1,0.12-0.16c0.03,0.02,0.07,0.05,0.1,0.07c-0.21,0.26-0.37,0.57-0.63,0.78
		c-0.88,0.73-1.87,0.85-2.94,0.44c-1.01-0.39-1.66-1.14-2.12-2.07c-0.2-0.39-0.34-0.82-0.48-1.23c-0.03-0.1-0.01-0.26,0.06-0.34
		c0.65-0.79,1.28-1.6,1.99-2.33c0.62-0.65,1.22-0.63,1.78,0.08c0.51,0.66,0.91,1.42,1.36,2.13c0.11,0.18,0.22,0.36,0.34,0.53
		c0.21,0.3,0.51,0.43,0.87,0.42c0.07,0,0.15,0.04,0.22,0.07C25.3,30.61,25.28,30.64,25.27,30.67z"/>
	<path class="st2" d="M27.46,26.17c-0.27-0.12-0.56-0.24-0.75-0.44c-0.35-0.37-0.7-0.78-0.94-1.23c-0.65-1.25-1.26-2.53-1.83-3.82
		c-0.57-1.29-1.04-2.63-1.79-3.84c-0.66-1.07-1.51-1.92-2.8-2.15c-0.63-0.11-1.28-0.09-1.92-0.13c-0.01-0.07-0.01-0.11,0.01-0.14
		l-1.04,0.14l-1.15-0.18c0.05,0.02,0.11,0.09,0.17,0.13c-0.07,0.03-0.14,0.07-0.2,0.08c-0.16,0.01-0.32-0.01-0.48-0.01
		c-0.86-0.01-1.69,0.08-2.44,0.53c-0.29,0.18-0.56,0.39-0.8,0.61c-0.36,0.43-0.73,0.95-1.07,1.48c-0.02,0.03-0.03,0.06-0.05,0.1
		c-0.75,1.59-1.43,3.22-2.13,4.83c-0.25,0.58-0.55,1.14-0.72,1.75c-0.3,1.05-0.12,2.13,0,3.24c0.05-0.06,0.08-0.09,0.1-0.12
		c0.4-0.5,0.77-1.03,1.2-1.51c0.43-0.46,0.96-0.8,1.6-0.9c1.06-0.17,2.07,0.03,3.03,0.45c0.67,0.29,0.96,1.03,0.75,1.7
		c-0.89-0.26-1.75-0.54-2.63-0.76c-0.88-0.22-1.76-0.18-2.52,0.37c-0.53,0.38-1.02,0.82-1.52,1.24c-0.07,0.06-0.11,0.18-0.11,0.28
		c0.02,0.73,0.02,1.46,0.08,2.18c0.03,0.47,0.25,0.58,0.68,0.35c0.18-0.09,0.33-0.26,0.46-0.42c0.15-0.2,0.26-0.43,0.39-0.65
		c0.4-0.64,0.77-1.32,1.23-1.91c0.55-0.7,1.13-0.76,1.75-0.13c0.74,0.76,1.4,1.61,2.08,2.43c0.05,0.06,0.04,0.23,0,0.32
		c-0.28,0.59-0.55,1.19-0.89,1.74c-0.46,0.75-1.12,1.3-1.96,1.64c-0.89,0.35-1.49,1.03-1.69,1.95c-0.22,1.04,0.21,1.95,0.83,2.76
		c0.05,0.06,0.26,0.07,0.35,0.03c0.59-0.3,0.95-0.8,1.12-1.42c0.17-0.58,0.3-1.16,0.45-1.75c0.13-0.5,0.43-0.84,0.89-1.05
		c0.06-0.03,0.16,0.01,0.23,0.01c-0.04,0.06-0.07,0.14-0.13,0.17c-0.42,0.21-0.69,0.54-0.8,1c-0.11,0.45,0.04,0.73,0.5,0.84
		c0.14,0.04,0.29,0.05,0.44,0.05c0.68,0.02,1.31,0.21,1.9,0.54c0.68,0.38,1.37,0.39,2.08,0.02c0.43-0.22,0.92-0.37,1.39-0.49
		c0.32-0.09,0.67-0.06,1-0.13c0.43-0.1,0.58-0.41,0.48-0.83c-0.11-0.45-0.35-0.78-0.78-0.98c-0.07-0.04-0.12-0.14-0.17-0.21
		c0.03-0.02,0.05-0.04,0.08-0.06c0.54,0.2,0.92,0.56,1.07,1.14c0.15,0.59,0.29,1.19,0.46,1.78c0.24,0.81,0.77,1.36,1.6,1.56
		c0.88,0.21,1.73,0.08,2.21-0.75c0.54-0.94,0.85-1.95,1.06-3c0.21-1.09,0.35-2.19,0.53-3.28c0.01-0.07,0.09-0.13,0.14-0.19
		c0.03,0.08,0.09,0.15,0.09,0.23c0,0.17-0.03,0.34-0.06,0.61c0.43-0.43,0.59-0.9,0.7-1.37c0.33-1.36,0.43-2.75,0.45-4.15
		C27.68,26.28,27.6,26.23,27.46,26.17z M18.96,25.26c0.99-0.78,3.24-0.93,4.31-0.27c0.69,0.43,1.15,1.08,1.62,1.72
		c0.27,0.37,0.5,0.76,0.75,1.15c-0.03,0.02-0.06,0.04-0.09,0.06c-0.36-0.33-0.73-0.64-1.07-0.98c-1.2-1.16-2.58-1.26-4.08-0.75
		c-0.61,0.21-1.22,0.4-1.82,0.59C18.35,26.29,18.54,25.59,18.96,25.26z"/>
	<path d="M25.24,30.45c-0.63,0.13-1.18-0.79-1.3-1.01c-0.58-1.07-0.98-1.69-1.27-2.06c-0.01-0.01-0.01-0.02-0.02-0.03
		c-0.02-0.03-0.04-0.05-0.06-0.07c-0.48-0.56-0.97-0.43-1.27-0.26c-0.58,0.4-1.35,1.27-1.84,1.85c-0.15,0.19-0.31,0.38-0.46,0.56
		c-0.01,0.01-0.01,0.01-0.01,0.01l0,0c-0.05,0.06-0.09,0.11-0.14,0.17c-0.05,0.06-0.04,0.23,0,0.32c0.22,0.46,0.43,0.93,0.68,1.38
		c1.68,2.76,3.46,2.12,3.8,1.96c0.5-0.24,0.79-0.6,0.79-0.6s0,0,0.01-0.08c-0.21,0.3-0.48,0.48-0.75,0.59c0,0,0,0,0,0
		c-1.97,0.89-3.27-1.3-3.27-1.3l0,0c-0.42-0.65-0.64-1.38-0.75-1.71c-0.21-0.61,0.2-0.76,0.2-0.76v0c0.01,0,0.02-0.01,0.03-0.01
		c0.76-0.21,1.53-0.32,2.31-0.16c0.46,0.09,0.92,0.18,1.47,0.3c-0.12-0.19-0.23-0.35-0.33-0.49c-0.35-0.44-0.72-0.68-1.08-0.78
		c-0.24-0.04-0.47-0.02-0.67,0.04c-0.18,0.06-0.36,0.14-0.53,0.22c0,0,0,0,0,0v0c-0.55,0.25-1.05,0.55-1.19,0.64
		c-0.01,0.01-0.03,0.02-0.04,0.02c0.49-0.76,1.04-1.46,1.76-2c0.42-0.31,0.74-0.27,1.13,0.18c0.33,0.37,0.59,0.79,0.86,1.21
		c0.18,0.28,0.32,0.59,0.48,0.89c0.3,0.54,0.61,1.09,1.34,1.16C25.22,30.59,25.31,30.54,25.24,30.45z"/>
	<path class="st1" d="M38.27,14.99c-0.82,0-1.58,0.01-2.35-0.01c-0.08,0-0.19-0.15-0.22-0.24c-0.27-1-0.41-2.02-0.42-3.06
		c-0.01-0.72,0.06-1.44,0.06-2.16c0-0.32,0.15-0.36,0.42-0.36c1.57,0.01,3.13,0,4.69,0c0.36,0,0.72-0.01,1.08,0.01
		c0.09,0.01,0.24,0.12,0.25,0.19c0.12,0.89,0.22,1.79,0.33,2.68c0.03,0.22-0.13,0.29-0.29,0.35c-1.05,0.41-2.12,0.69-3.24,0.82
		c-0.3,0.03-0.41,0.14-0.38,0.44C38.24,14.08,38.25,14.51,38.27,14.99z M38.5,9.8c-0.16,0.94-0.27,1.82-0.25,2.8
		c0.43-0.13,0.81-0.24,1.18-0.38c0.07-0.02,0.14-0.19,0.12-0.28C39.41,11.16,39.08,10.47,38.5,9.8z"/>
</g>
</svg>
